<svg xmlns="http://www.w3.org/2000/svg" xmlns:xlink="http://www.w3.org/1999/xlink" width="1440" height="776.43"><rect width="1440" height="776.43" rx="15" ry="15" class="a"/><svg y="0%" x="0%"><circle cx="20" cy="20" r="6" fill="#ff5f58"/><circle cx="40" cy="20" r="6" fill="#ffbd2e"/><circle cx="60" cy="20" r="6" fill="#18c132"/></svg><svg height="716.43" viewBox="0 0 140 71.643" width="1400" x="15" xmlns="http://www.w3.org/2000/svg" xmlns:xlink="http://www.w3.org/1999/xlink" y="50"><style>@keyframes l{0%{transform:translateX(0)}7.6%{transform:translateX(-140px)}10.7%{transform:translateX(-280px)}22%{transform:translateX(-420px)}22.2%{transform:translateX(-560px)}23.5%{transform:translateX(-700px)}23.7%{transform:translateX(-840px)}24.9%{transform:translateX(-980px)}25%{transform:translateX(-1120px)}27.6%{transform:translateX(-1260px)}27.8%{transform:translateX(-1400px)}28.7%{transform:translateX(-1540px)}28.8%{transform:translateX(-1680px)}30.6%{transform:translateX(-1820px)}30.8%{transform:translateX(-1960px)}32.1%{transform:translateX(-2100px)}32.3%{transform:translateX(-2240px)}34%{transform:translateX(-2380px)}34.2%{transform:translateX(-2520px)}35.9%{transform:translateX(-2660px)}36.1%{transform:translateX(-2800px)}37.4%{transform:translateX(-2940px)}37.6%{transform:translateX(-3080px)}39.2%{transform:translateX(-3220px)}39.3%{transform:translateX(-3360px)}41.1%{transform:translateX(-3500px)}41.3%{transform:translateX(-3640px)}49%{transform:translateX(-3780px)}49.1%{transform:translateX(-4060px)}49.6%{transform:translateX(-4200px)}58.6%{transform:translateX(-4340px)}58.7%{transform:translateX(-4480px)}60.4%{transform:translateX(-4620px)}60.5%{transform:translateX(-4760px)}61.6%{transform:translateX(-4900px)}61.7%{transform:translateX(-5040px)}63.9%{transform:translateX(-5180px)}64%{transform:translateX(-5320px)}65%{transform:translateX(-5460px)}65.1%{transform:translateX(-5600px)}67.3%{transform:translateX(-5740px)}67.5%{transform:translateX(-5880px)}68.5%{transform:translateX(-6020px)}68.8%{transform:translateX(-6160px)}72.5%{transform:translateX(-6300px)}72.6%{transform:translateX(-6440px)}72.8%{transform:translateX(-6580px)}73.1%{transform:translateX(-6720px)}99.7%{transform:translateX(-6860px)}to{transform:translateX(-7140px)}}.a{fill:#282d35}.g,.h,.i,.j{fill:#2671be;white-space:pre}.h,.i,.j{fill:#b9c0cb}.i,.j{fill:#d290e3}.j{fill:#6f7783}</style><g font-family="Monaco,Consolas,Menlo,'Bitstream Vera Sans Mono','Powerline Symbols',monospace" font-size="1.67"><defs><symbol id="1"><text y="1.67" style="white-space:pre" fill="#3ec669">~</text></symbol><symbol id="2"><text y="1.67" class="g">PS</text><text x="3.006" y="1.67" class="h">&gt;</text></symbol><symbol id="3"><text y="1.67" class="g">PS</text><text x="3.006" y="1.67" class="h">&gt;</text><text x="5.01" y="1.67" class="i">e</text></symbol><symbol id="4"><text y="1.67" class="g">PS</text><text x="3.006" y="1.67" class="h">&gt;</text><text x="5.01" y="1.67" class="i">eg</text></symbol><symbol id="5"><text y="1.67" class="g">PS</text><text x="3.006" y="1.67" class="h">&gt;</text><text x="5.01" y="1.67" class="i">egs</text></symbol><symbol id="6"><text y="1.67" class="g">PS</text><text x="3.006" y="1.67" class="h">&gt;</text><text x="5.01" y="1.67" class="i">egsf</text></symbol><symbol id="7"><text y="1.67" class="g">PS</text><text x="3.006" y="1.67" class="h">&gt;</text><text x="5.01" y="1.67" class="i">egsfr</text></symbol><symbol id="8"><text y="1.67" class="g">PS</text><text x="3.006" y="1.67" class="h">&gt;</text><text x="5.01" y="1.67" class="i">egsfre</text></symbol><symbol id="9"><text y="1.67" class="g">PS</text><text x="3.006" y="1.67" class="h">&gt;</text><text x="5.01" y="1.67" class="i">egsfree</text></symbol><symbol id="10"><text y="1.67" class="g">PS</text><text x="3.006" y="1.67" class="h">&gt;</text><text x="5.01" y="1.67" class="i">egsfree</text><text x="13.026" y="1.67" class="j">g</text></symbol><symbol id="11"><text y="1.67" class="g">PS</text><text x="3.006" y="1.67" class="h">&gt;</text><text x="5.01" y="1.67" class="i">egsfree</text><text x="13.026" y="1.67" class="j">ge</text></symbol><symbol id="12"><text y="1.67" class="g">PS</text><text x="3.006" y="1.67" class="h">&gt;</text><text x="5.01" y="1.67" class="i">egsfree</text><text x="13.026" y="1.67" class="j">get</text></symbol><symbol id="13"><text y="1.67" class="h">Discounted</text><text x="11.022" y="1.67" class="h">free</text><text x="16.032" y="1.67" class="h">games:</text></symbol><symbol id="14"><text x="5.01" y="1.67" class="h">Name</text><text x="43.086" y="1.67" class="h">Publisher</text><text x="63.126" y="1.67" class="h">Starts</text><text x="81.162" y="1.67" class="h">Original</text><text x="90.18" y="1.67" class="h">price</text><text x="97.194" y="1.67" class="h">Store</text><text x="103.206" y="1.67" class="h">link</text></symbol><symbol id="15"><text x="2.004" y="1.67" class="h">-</text><text x="5.01" y="1.67" class="h">In</text><text x="8.016" y="1.67" class="h">Sound</text><text x="14.028" y="1.67" class="h">Mind</text><text x="43.086" y="1.67" class="h">Maximum</text><text x="51.102" y="1.67" class="h">Games</text><text x="63.126" y="1.67" class="h">Currently</text><text x="73.146" y="1.67" class="h">active</text><text x="81.162" y="1.67" class="h">34.99</text><text x="87.174" y="1.67" class="h">USD</text><text x="97.194" y="1.67" class="h">Link</text></symbol><symbol id="16"><text x="2.004" y="1.67" class="h">-</text><text x="5.01" y="1.67" class="h">DEMON&apos;S</text><text x="13.026" y="1.67" class="h">TILT</text><text x="43.086" y="1.67" class="h">FLARB</text><text x="49.098" y="1.67" class="h">LLC</text><text x="63.126" y="1.67" class="h">On</text><text x="66.132" y="1.67" class="h">thursday</text><text x="81.162" y="1.67" class="h">19.99</text><text x="87.174" y="1.67" class="h">USD</text><text x="97.194" y="1.67" class="h">Link</text></symbol><symbol id="17"><text x="2.004" y="1.67" class="h">-</text><text x="5.01" y="1.67" class="h">Yooka-Laylee</text><text x="18.036" y="1.67" class="h">and</text><text x="22.044" y="1.67" class="h">the</text><text x="26.052" y="1.67" class="h">Impossible</text><text x="37.074" y="1.67" class="h">Lair</text><text x="43.086" y="1.67" class="h">Team17</text><text x="50.1" y="1.67" class="h">Digital</text><text x="58.116" y="1.67" class="h">Ltd</text><text x="63.126" y="1.67" class="h">On</text><text x="66.132" y="1.67" class="h">thursday</text><text x="81.162" y="1.67" class="h">29.99</text><text x="87.174" y="1.67" class="h">USD</text><text x="97.194" y="1.67" class="h">Link</text></symbol><symbol id="18"><text x="2.004" y="1.67" class="h">-</text><text x="5.01" y="1.67" class="h">Windbound</text><text x="43.086" y="1.67" class="h">Koch</text><text x="48.096" y="1.67" class="h">Media</text><text x="63.126" y="1.67" class="h">On</text><text x="66.132" y="1.67" class="h">thursday</text><text x="81.162" y="1.67" class="h">19.99</text><text x="87.174" y="1.67" class="h">USD</text><text x="97.194" y="1.67" class="h">Link</text></symbol><symbol id="19"><text x="2.004" y="1.67" class="h">-</text><text x="5.01" y="1.67" class="h">Cris</text><text x="10.02" y="1.67" class="h">Tales</text><text x="43.086" y="1.67" class="h">Maximum</text><text x="51.102" y="1.67" class="h">Games</text><text x="63.126" y="1.67" class="h">On</text><text x="66.132" y="1.67" class="h">thursday</text><text x="81.162" y="1.67" class="h">39.99</text><text x="87.174" y="1.67" class="h">USD</text><text x="97.194" y="1.67" class="h">Link</text></symbol><symbol id="20"><text y="1.67" class="h">A</text><text x="2.004" y="1.67" class="h">cli</text><text x="6.012" y="1.67" class="h">to</text><text x="9.018" y="1.67" class="h">fetch</text><text x="15.03" y="1.67" class="h">EpicGamesStore</text><text x="30.06" y="1.67" class="h">free</text><text x="35.07" y="1.67" class="h">games.</text></symbol><symbol id="21"><text y="1.67" class="h">Usage:</text><text x="7.014" y="1.67" class="h">egsfree</text><text x="15.03" y="1.67" class="h">&lt;command&gt;</text><text x="25.05" y="1.67" class="h">[arguments]</text></symbol><symbol id="22"><text y="1.67" class="h">Global</text><text x="7.014" y="1.67" class="h">options:</text></symbol><symbol id="23"><text y="1.67" class="h">-h,</text><text x="4.008" y="1.67" class="h">--help</text><text x="14.028" y="1.67" class="h">Print</text><text x="20.04" y="1.67" class="h">this</text><text x="25.05" y="1.67" class="h">usage</text><text x="31.062" y="1.67" class="h">information.</text></symbol><symbol id="24"><text y="1.67" class="h">Available</text><text x="10.02" y="1.67" class="h">commands:</text></symbol><symbol id="25"><text x="2.004" y="1.67" class="h">config</text><text x="11.022" y="1.67" class="h">Display</text><text x="19.038" y="1.67" class="h">or</text><text x="22.044" y="1.67" class="h">edit</text><text x="27.054" y="1.67" class="h">the</text><text x="31.062" y="1.67" class="h">cli</text><text x="35.07" y="1.67" class="h">config.</text></symbol><symbol id="26"><text x="2.004" y="1.67" class="h">get</text><text x="11.022" y="1.67" class="h">Get</text><text x="15.03" y="1.67" class="h">the</text><text x="19.038" y="1.67" class="h">current</text><text x="27.054" y="1.67" class="h">EGS</text><text x="31.062" y="1.67" class="h">free</text><text x="36.072" y="1.67" class="h">games.</text></symbol><symbol id="27"><text y="1.67" class="h">Run</text><text x="4.008" y="1.67" class="h">&quot;egsfree</text><text x="13.026" y="1.67" class="h">help</text><text x="18.036" y="1.67" class="h">&lt;command&gt;&quot;</text><text x="29.058" y="1.67" class="h">for</text><text x="33.066" y="1.67" class="h">more</text><text x="38.076" y="1.67" class="h">information</text><text x="50.1" y="1.67" class="h">about</text><text x="56.112" y="1.67" class="h">a</text><text x="58.116" y="1.67" class="h">command.</text></symbol><symbol id="a"><path fill="transparent" d="M0 0h140v33H0z"/></symbol></defs><path class="a" d="M0 0h140v71.643H0z"/><g style="animation-duration:11.3257181s;animation-iteration-count:infinite;animation-name:l;animation-timing-function:steps(1,end)"><svg width="7280"><svg><use xlink:href="#a"/></svg><svg x="140"><use xlink:href="#a"/></svg><svg x="280"><use xlink:href="#a"/><use xlink:href="#1" y="2.171"/><use xlink:href="#2" y="4.342"/></svg><svg x="420"><use xlink:href="#a"/><use xlink:href="#1" y="2.171"/><use xlink:href="#2" y="4.342"/></svg><svg x="560"><use xlink:href="#a"/><use xlink:href="#1" y="2.171"/><use xlink:href="#3" y="4.342"/></svg><svg x="700"><use xlink:href="#a"/><use xlink:href="#1" y="2.171"/><use xlink:href="#3" y="4.342"/></svg><svg x="840"><use xlink:href="#a"/><use xlink:href="#1" y="2.171"/><use xlink:href="#4" y="4.342"/></svg><svg x="980"><use xlink:href="#a"/><use xlink:href="#1" y="2.171"/><use xlink:href="#4" y="4.342"/></svg><svg x="1120"><use xlink:href="#a"/><use xlink:href="#1" y="2.171"/><use xlink:href="#5" y="4.342"/></svg><svg x="1260"><use xlink:href="#a"/><use xlink:href="#1" y="2.171"/><use xlink:href="#5" y="4.342"/></svg><svg x="1400"><use xlink:href="#a"/><use xlink:href="#1" y="2.171"/><use xlink:href="#6" y="4.342"/></svg><svg x="1540"><use xlink:href="#a"/><use xlink:href="#1" y="2.171"/><use xlink:href="#6" y="4.342"/></svg><svg x="1680"><use xlink:href="#a"/><use xlink:href="#1" y="2.171"/><use xlink:href="#7" y="4.342"/></svg><svg x="1820"><use xlink:href="#a"/><use xlink:href="#1" y="2.171"/><use xlink:href="#7" y="4.342"/></svg><svg x="1960"><use xlink:href="#a"/><use xlink:href="#1" y="2.171"/><use xlink:href="#8" y="4.342"/></svg><svg x="2100"><use xlink:href="#a"/><use xlink:href="#1" y="2.171"/><use xlink:href="#8" y="4.342"/></svg><svg x="2240"><use xlink:href="#a"/><use xlink:href="#1" y="2.171"/><use xlink:href="#9" y="4.342"/></svg><svg x="2380"><use xlink:href="#a"/><use xlink:href="#1" y="2.171"/><use xlink:href="#9" y="4.342"/></svg><svg x="2520"><use xlink:href="#a"/><use xlink:href="#1" y="2.171"/><use xlink:href="#9" y="4.342"/></svg><svg x="2660"><use xlink:href="#a"/><use xlink:href="#1" y="2.171"/><use xlink:href="#9" y="4.342"/></svg><svg x="2800"><use xlink:href="#a"/><use xlink:href="#1" y="2.171"/><use xlink:href="#10" y="4.342"/></svg><svg x="2940"><use xlink:href="#a"/><use xlink:href="#1" y="2.171"/><use xlink:href="#10" y="4.342"/></svg><svg x="3080"><use xlink:href="#a"/><use xlink:href="#1" y="2.171"/><use xlink:href="#11" y="4.342"/></svg><svg x="3220"><use xlink:href="#a"/><use xlink:href="#1" y="2.171"/><use xlink:href="#11" y="4.342"/></svg><svg x="3360"><use xlink:href="#a"/><use xlink:href="#1" y="2.171"/><use xlink:href="#12" y="4.342"/></svg><svg x="3500"><use xlink:href="#a"/><use xlink:href="#1" y="2.171"/><use xlink:href="#12" y="4.342"/></svg><svg x="3640"><use xlink:href="#a"/><use xlink:href="#1" y="2.171"/><use xlink:href="#12" y="4.342"/></svg><svg x="3780"><use xlink:href="#a"/><use xlink:href="#1" y="2.171"/><use xlink:href="#12" y="4.342"/><use xlink:href="#13" y="8.684"/></svg><svg x="3920"><use xlink:href="#a"/><use xlink:href="#1" y="2.171"/><use xlink:href="#12" y="4.342"/><use xlink:href="#13" y="8.684"/><use xlink:href="#14" y="13.026"/><use xlink:href="#15" y="17.368"/><use xlink:href="#16" y="19.539"/><use xlink:href="#17" y="21.71"/><use xlink:href="#18" y="23.881"/><text x="2.004" y="27.722" class="h">-</text><text x="5.01" y="27.722" class="h">Cris</text><text x="10.02" y="27.722" class="h">Tales</text><text x="43.086" y="27.722" class="h">Maximum</text><text x="51.102" y="27.722" class="h">Games</text><text x="63.126" y="27.722" class="h">On</text><text x="66.132" y="27.722" class="h">thursday</text><text x="81.162" y="27.722" class="h">39</text></svg><svg x="4060"><use xlink:href="#a"/><use xlink:href="#1" y="2.171"/><use xlink:href="#12" y="4.342"/><use xlink:href="#13" y="8.684"/><use xlink:href="#14" y="13.026"/><use xlink:href="#15" y="17.368"/><use xlink:href="#16" y="19.539"/><use xlink:href="#17" y="21.71"/><use xlink:href="#18" y="23.881"/><use xlink:href="#19" y="26.052"/></svg><svg x="4200"><use xlink:href="#a"/><use xlink:href="#1" y="2.171"/><use xlink:href="#12" y="4.342"/><use xlink:href="#13" y="8.684"/><use xlink:href="#14" y="13.026"/><use xlink:href="#15" y="17.368"/><use xlink:href="#16" y="19.539"/><use xlink:href="#17" y="21.71"/><use xlink:href="#18" y="23.881"/><use xlink:href="#19" y="26.052"/><use xlink:href="#1" y="30.394"/><use xlink:href="#2" y="32.565"/></svg><svg x="4340"><use xlink:href="#a"/><use xlink:href="#1" y="2.171"/><use xlink:href="#12" y="4.342"/><use xlink:href="#13" y="8.684"/><use xlink:href="#14" y="13.026"/><use xlink:href="#15" y="17.368"/><use xlink:href="#16" y="19.539"/><use xlink:href="#17" y="21.71"/><use xlink:href="#18" y="23.881"/><use xlink:href="#19" y="26.052"/><use xlink:href="#1" y="30.394"/><use xlink:href="#2" y="32.565"/></svg><svg x="4480"><use xlink:href="#a"/><use xlink:href="#1" y="2.171"/><use xlink:href="#12" y="4.342"/><use xlink:href="#13" y="8.684"/><use xlink:href="#14" y="13.026"/><use xlink:href="#15" y="17.368"/><use xlink:href="#16" y="19.539"/><use xlink:href="#17" y="21.71"/><use xlink:href="#18" y="23.881"/><use xlink:href="#19" y="26.052"/><use xlink:href="#1" y="30.394"/><use xlink:href="#3" y="32.565"/></svg><svg x="4620"><use xlink:href="#a"/><use xlink:href="#1" y="2.171"/><use xlink:href="#12" y="4.342"/><use xlink:href="#13" y="8.684"/><use xlink:href="#14" y="13.026"/><use xlink:href="#15" y="17.368"/><use xlink:href="#16" y="19.539"/><use xlink:href="#17" y="21.71"/><use xlink:href="#18" y="23.881"/><use xlink:href="#19" y="26.052"/><use xlink:href="#1" y="30.394"/><use xlink:href="#3" y="32.565"/></svg><svg x="4760"><use xlink:href="#a"/><use xlink:href="#1" y="2.171"/><use xlink:href="#12" y="4.342"/><use xlink:href="#13" y="8.684"/><use xlink:href="#14" y="13.026"/><use xlink:href="#15" y="17.368"/><use xlink:href="#16" y="19.539"/><use xlink:href="#17" y="21.71"/><use xlink:href="#18" y="23.881"/><use xlink:href="#19" y="26.052"/><use xlink:href="#1" y="30.394"/><use xlink:href="#4" y="32.565"/></svg><svg x="4900"><use xlink:href="#a"/><use xlink:href="#1" y="2.171"/><use xlink:href="#12" y="4.342"/><use xlink:href="#13" y="8.684"/><use xlink:href="#14" y="13.026"/><use xlink:href="#15" y="17.368"/><use xlink:href="#16" y="19.539"/><use xlink:href="#17" y="21.71"/><use xlink:href="#18" y="23.881"/><use xlink:href="#19" y="26.052"/><use xlink:href="#1" y="30.394"/><use xlink:href="#4" y="32.565"/></svg><svg x="5040"><use xlink:href="#a"/><use xlink:href="#1" y="2.171"/><use xlink:href="#12" y="4.342"/><use xlink:href="#13" y="8.684"/><use xlink:href="#14" y="13.026"/><use xlink:href="#15" y="17.368"/><use xlink:href="#16" y="19.539"/><use xlink:href="#17" y="21.71"/><use xlink:href="#18" y="23.881"/><use xlink:href="#19" y="26.052"/><use xlink:href="#1" y="30.394"/><use xlink:href="#5" y="32.565"/></svg><svg x="5180"><use xlink:href="#a"/><use xlink:href="#1" y="2.171"/><use xlink:href="#12" y="4.342"/><use xlink:href="#13" y="8.684"/><use xlink:href="#14" y="13.026"/><use xlink:href="#15" y="17.368"/><use xlink:href="#16" y="19.539"/><use xlink:href="#17" y="21.71"/><use xlink:href="#18" y="23.881"/><use xlink:href="#19" y="26.052"/><use xlink:href="#1" y="30.394"/><use xlink:href="#5" y="32.565"/></svg><svg x="5320"><use xlink:href="#a"/><use xlink:href="#1" y="2.171"/><use xlink:href="#12" y="4.342"/><use xlink:href="#13" y="8.684"/><use xlink:href="#14" y="13.026"/><use xlink:href="#15" y="17.368"/><use xlink:href="#16" y="19.539"/><use xlink:href="#17" y="21.71"/><use xlink:href="#18" y="23.881"/><use xlink:href="#19" y="26.052"/><use xlink:href="#1" y="30.394"/><use xlink:href="#6" y="32.565"/></svg><svg x="5460"><use xlink:href="#a"/><use xlink:href="#1" y="2.171"/><use xlink:href="#12" y="4.342"/><use xlink:href="#13" y="8.684"/><use xlink:href="#14" y="13.026"/><use xlink:href="#15" y="17.368"/><use xlink:href="#16" y="19.539"/><use xlink:href="#17" y="21.71"/><use xlink:href="#18" y="23.881"/><use xlink:href="#19" y="26.052"/><use xlink:href="#1" y="30.394"/><use xlink:href="#6" y="32.565"/></svg><svg x="5600"><use xlink:href="#a"/><use xlink:href="#1" y="2.171"/><use xlink:href="#12" y="4.342"/><use xlink:href="#13" y="8.684"/><use xlink:href="#14" y="13.026"/><use xlink:href="#15" y="17.368"/><use xlink:href="#16" y="19.539"/><use xlink:href="#17" y="21.71"/><use xlink:href="#18" y="23.881"/><use xlink:href="#19" y="26.052"/><use xlink:href="#1" y="30.394"/><use xlink:href="#7" y="32.565"/></svg><svg x="5740"><use xlink:href="#a"/><use xlink:href="#1" y="2.171"/><use xlink:href="#12" y="4.342"/><use xlink:href="#13" y="8.684"/><use xlink:href="#14" y="13.026"/><use xlink:href="#15" y="17.368"/><use xlink:href="#16" y="19.539"/><use xlink:href="#17" y="21.71"/><use xlink:href="#18" y="23.881"/><use xlink:href="#19" y="26.052"/><use xlink:href="#1" y="30.394"/><use xlink:href="#7" y="32.565"/></svg><svg x="5880"><use xlink:href="#a"/><use xlink:href="#1" y="2.171"/><use xlink:href="#12" y="4.342"/><use xlink:href="#13" y="8.684"/><use xlink:href="#14" y="13.026"/><use xlink:href="#15" y="17.368"/><use xlink:href="#16" y="19.539"/><use xlink:href="#17" y="21.71"/><use xlink:href="#18" y="23.881"/><use xlink:href="#19" y="26.052"/><use xlink:href="#1" y="30.394"/><use xlink:href="#8" y="32.565"/></svg><svg x="6020"><use xlink:href="#a"/><use xlink:href="#1" y="2.171"/><use xlink:href="#12" y="4.342"/><use xlink:href="#13" y="8.684"/><use xlink:href="#14" y="13.026"/><use xlink:href="#15" y="17.368"/><use xlink:href="#16" y="19.539"/><use xlink:href="#17" y="21.71"/><use xlink:href="#18" y="23.881"/><use xlink:href="#19" y="26.052"/><use xlink:href="#1" y="30.394"/><use xlink:href="#8" y="32.565"/></svg><svg x="6160"><use xlink:href="#a"/><use xlink:href="#1" y="2.171"/><use xlink:href="#12" y="4.342"/><use xlink:href="#13" y="8.684"/><use xlink:href="#14" y="13.026"/><use xlink:href="#15" y="17.368"/><use xlink:href="#16" y="19.539"/><use xlink:href="#17" y="21.71"/><use xlink:href="#18" y="23.881"/><use xlink:href="#19" y="26.052"/><use xlink:href="#1" y="30.394"/><use xlink:href="#9" y="32.565"/></svg><svg x="6300"><use xlink:href="#a"/><use xlink:href="#1" y="2.171"/><use xlink:href="#12" y="4.342"/><use xlink:href="#13" y="8.684"/><use xlink:href="#14" y="13.026"/><use xlink:href="#15" y="17.368"/><use xlink:href="#16" y="19.539"/><use xlink:href="#17" y="21.71"/><use xlink:href="#18" y="23.881"/><use xlink:href="#19" y="26.052"/><use xlink:href="#1" y="30.394"/><use xlink:href="#9" y="32.565"/></svg><svg x="6440"><use xlink:href="#a"/><use xlink:href="#1" y="2.171"/><use xlink:href="#12" y="4.342"/><use xlink:href="#13" y="8.684"/><use xlink:href="#14" y="13.026"/><use xlink:href="#15" y="17.368"/><use xlink:href="#16" y="19.539"/><use xlink:href="#17" y="21.71"/><use xlink:href="#18" y="23.881"/><use xlink:href="#19" y="26.052"/><use xlink:href="#1" y="30.394"/><use xlink:href="#9" y="32.565"/></svg><svg x="6580"><use xlink:href="#a"/><use xlink:href="#1" y="2.171"/><use xlink:href="#12" y="4.342"/><use xlink:href="#13" y="8.684"/><use xlink:href="#14" y="13.026"/><use xlink:href="#15" y="17.368"/><use xlink:href="#16" y="19.539"/><use xlink:href="#17" y="21.71"/><use xlink:href="#18" y="23.881"/><use xlink:href="#19" y="26.052"/><use xlink:href="#1" y="30.394"/><use xlink:href="#9" y="32.565"/><use xlink:href="#20" y="34.736"/><use xlink:href="#21" y="39.078"/><use xlink:href="#22" y="43.42"/><use xlink:href="#23" y="45.591"/><use xlink:href="#24" y="49.933"/><use xlink:href="#25" y="52.104"/><use xlink:href="#26" y="54.275"/><use xlink:href="#27" y="58.617"/></svg><svg x="6720"><use xlink:href="#a"/><use xlink:href="#1" y="2.171"/><use xlink:href="#12" y="4.342"/><use xlink:href="#13" y="8.684"/><use xlink:href="#14" y="13.026"/><use xlink:href="#15" y="17.368"/><use xlink:href="#16" y="19.539"/><use xlink:href="#17" y="21.71"/><use xlink:href="#18" y="23.881"/><use xlink:href="#19" y="26.052"/><use xlink:href="#1" y="30.394"/><use xlink:href="#9" y="32.565"/><use xlink:href="#20" y="34.736"/><use xlink:href="#21" y="39.078"/><use xlink:href="#22" y="43.42"/><use xlink:href="#23" y="45.591"/><use xlink:href="#24" y="49.933"/><use xlink:href="#25" y="52.104"/><use xlink:href="#26" y="54.275"/><use xlink:href="#27" y="58.617"/><use xlink:href="#1" y="62.959"/><use xlink:href="#2" y="65.13"/></svg><svg x="6860"><use xlink:href="#a"/><use xlink:href="#1" y="2.171"/><use xlink:href="#12" y="4.342"/><use xlink:href="#13" y="8.684"/><use xlink:href="#14" y="13.026"/><use xlink:href="#15" y="17.368"/><use xlink:href="#16" y="19.539"/><use xlink:href="#17" y="21.71"/><use xlink:href="#18" y="23.881"/><use xlink:href="#19" y="26.052"/><use xlink:href="#1" y="30.394"/><use xlink:href="#9" y="32.565"/><use xlink:href="#20" y="34.736"/><use xlink:href="#21" y="39.078"/><use xlink:href="#22" y="43.42"/><use xlink:href="#23" y="45.591"/><use xlink:href="#24" y="49.933"/><use xlink:href="#25" y="52.104"/><use xlink:href="#26" y="54.275"/><use xlink:href="#27" y="58.617"/><use xlink:href="#1" y="62.959"/><use xlink:href="#2" y="65.13"/></svg><svg x="7000"><use xlink:href="#a"/><use xlink:href="#1" y="2.171"/><use xlink:href="#12" y="4.342"/><use xlink:href="#13" y="8.684"/><use xlink:href="#14" y="13.026"/><use xlink:href="#15" y="17.368"/><use xlink:href="#16" y="19.539"/><use xlink:href="#17" y="21.71"/><use xlink:href="#18" y="23.881"/><use xlink:href="#19" y="26.052"/><use xlink:href="#1" y="30.394"/><use xlink:href="#9" y="32.565"/><use xlink:href="#20" y="34.736"/><use xlink:href="#21" y="39.078"/><use xlink:href="#22" y="43.42"/><use xlink:href="#23" y="45.591"/><use xlink:href="#24" y="49.933"/><use xlink:href="#25" y="52.104"/><use xlink:href="#26" y="54.275"/><use xlink:href="#27" y="58.617"/><use xlink:href="#1" y="62.959"/><use xlink:href="#2" y="65.13"/><use xlink:href="#1" y="69.472"/></svg><svg x="7140"><use xlink:href="#a"/><use xlink:href="#1"/><use xlink:href="#12" y="2.171"/><use xlink:href="#13" y="6.513"/><use xlink:href="#14" y="10.855"/><use xlink:href="#15" y="15.197"/><use xlink:href="#16" y="17.368"/><use xlink:href="#17" y="19.539"/><use xlink:href="#18" y="21.71"/><use xlink:href="#19" y="23.881"/><use xlink:href="#1" y="28.223"/><use xlink:href="#9" y="30.394"/><use xlink:href="#20" y="32.565"/><use xlink:href="#21" y="36.907"/><use xlink:href="#22" y="41.249"/><use xlink:href="#23" y="43.42"/><use xlink:href="#24" y="47.762"/><use xlink:href="#25" y="49.933"/><use xlink:href="#26" y="52.104"/><use xlink:href="#27" y="56.446"/><use xlink:href="#1" y="60.788"/><use xlink:href="#2" y="62.959"/><use xlink:href="#1" y="67.301"/><use xlink:href="#2" y="69.472"/></svg></svg></g></g></svg></svg>