<svg xmlns="http://www.w3.org/2000/svg" xmlns:xlink="http://www.w3.org/1999/xlink" width="1440" height="776.43"><rect width="1440" height="776.43" rx="15" ry="15" class="a"/><svg y="0%" x="0%"><circle cx="20" cy="20" r="6" fill="#ff5f58"/><circle cx="40" cy="20" r="6" fill="#ffbd2e"/><circle cx="60" cy="20" r="6" fill="#18c132"/></svg><svg height="716.43" viewBox="0 0 140 71.643" width="1400" x="15" xmlns="http://www.w3.org/2000/svg" xmlns:xlink="http://www.w3.org/1999/xlink" y="50"><style>@keyframes l{0%{transform:translateX(0)}18%{transform:translateX(-140px)}23.2%{transform:translateX(-280px)}23.3%{transform:translateX(-420px)}24.5%{transform:translateX(-560px)}24.7%{transform:translateX(-700px)}29.5%{transform:translateX(-840px)}29.6%{transform:translateX(-980px)}35.5%{transform:translateX(-1120px)}37.9%{transform:translateX(-1260px)}38.1%{transform:translateX(-1400px)}38.9%{transform:translateX(-1540px)}45.9%{transform:translateX(-1680px)}46%{transform:translateX(-1820px)}47.4%{transform:translateX(-1960px)}47.6%{transform:translateX(-2100px)}52.5%{transform:translateX(-2240px)}52.8%{transform:translateX(-2380px)}55.4%{transform:translateX(-2520px)}55.5%{transform:translateX(-2660px)}56.6%{transform:translateX(-2800px)}56.8%{transform:translateX(-2940px)}58.8%{transform:translateX(-3080px)}58.9%{transform:translateX(-3220px)}60.3%{transform:translateX(-3360px)}60.5%{transform:translateX(-3500px)}63.5%{transform:translateX(-3640px)}63.6%{transform:translateX(-3780px)}63.7%{transform:translateX(-3920px)}64.6%{transform:translateX(-4060px)}99.2%{transform:translateX(-4200px)}to{transform:translateX(-4340px)}}.a{fill:#282d35}.f,.g,.h,.i{fill:#3ec669;white-space:pre}.g,.h,.i{fill:#2671be}.h,.i{fill:#b9c0cb}.i{fill:#444}</style><g font-family="Monaco,Consolas,Menlo,'Bitstream Vera Sans Mono','Powerline Symbols',monospace" font-size="1.67"><defs><symbol id="1"><text y="1.67" class="f">~</text></symbol><symbol id="2"><text y="1.67" class="g">PWSH</text><text x="5.01" y="1.67" class="h">&gt;</text></symbol><symbol id="3"><text y="1.67" class="g">PWSH</text><text x="5.01" y="1.67" class="h">&gt;</text><text x="7.014" y="1.67" class="f">e</text><text x="8.016" y="1.67" class="i">gsfree</text><text x="15.03" y="1.67" class="i">get</text></symbol><symbol id="4"><text y="1.67" class="g">PWSH</text><text x="5.01" y="1.67" class="h">&gt;</text><text x="7.014" y="1.67" class="f">eg</text><text x="9.018" y="1.67" class="i">sfree</text><text x="15.03" y="1.67" class="i">get</text></symbol><symbol id="5"><text y="1.67" class="g">PWSH</text><text x="5.01" y="1.67" class="h">&gt;</text><text x="7.014" y="1.67" class="f">egsfree</text><text x="15.03" y="1.67" style="white-space:pre" fill="#6f7783">get</text></symbol><symbol id="6"><text y="1.67" class="h">Discounted</text><text x="11.022" y="1.67" class="h">free</text><text x="16.032" y="1.67" class="h">games:</text></symbol><symbol id="7"><text x="5.01" y="1.67" class="h">Name</text><text x="23.046" y="1.67" class="h">Publisher</text><text x="45.09" y="1.67" class="h">Starts</text><text x="63.126" y="1.67" class="h">Original</text><text x="72.144" y="1.67" class="h">price</text><text x="79.158" y="1.67" class="h">Store</text><text x="85.17" y="1.67" class="h">link</text></symbol><symbol id="8"><text x="2.004" y="1.67" class="h">-</text><text x="5.01" y="1.67" class="h">Amnesia:</text><text x="14.028" y="1.67" class="h">Rebirth</text><text x="23.046" y="1.67" class="h">Frictional</text><text x="34.068" y="1.67" class="h">Games</text><text x="45.09" y="1.67" class="h">Currently</text><text x="55.11" y="1.67" class="h">active</text><text x="63.126" y="1.67" class="h">24.99</text><text x="69.138" y="1.67" class="h">EUR</text><text x="79.158" y="1.67" class="h">Link</text></symbol><symbol id="9"><text x="2.004" y="1.67" class="h">-</text><text x="5.01" y="1.67" class="h">Riverbond</text><text x="23.046" y="1.67" class="h">Cococucumber</text><text x="36.072" y="1.67" class="h">Inc</text><text x="45.09" y="1.67" class="h">Currently</text><text x="55.11" y="1.67" class="h">active</text><text x="63.126" y="1.67" class="h">19.99</text><text x="69.138" y="1.67" class="h">EUR</text><text x="79.158" y="1.67" class="h">Link</text></symbol><symbol id="10"><text x="2.004" y="1.67" class="h">-</text><text x="5.01" y="1.67" class="h">Just</text><text x="10.02" y="1.67" class="h">Die</text><text x="14.028" y="1.67" class="h">Already</text><text x="23.046" y="1.67" class="h">Curve</text><text x="29.058" y="1.67" class="h">Digital</text><text x="45.09" y="1.67" class="h">On</text><text x="48.096" y="1.67" class="h">thursday</text><text x="63.126" y="1.67" class="h">13.99</text><text x="69.138" y="1.67" class="h">EUR</text><text x="79.158" y="1.67" class="h">Link</text></symbol><symbol id="11"><text x="2.004" y="1.67" class="h">-</text><text x="5.01" y="1.67" class="h">Paradigm</text><text x="23.046" y="1.67" class="h">Janerka</text><text x="31.062" y="1.67" class="h">Productions</text><text x="45.09" y="1.67" class="h">On</text><text x="48.096" y="1.67" class="h">thursday</text><text x="63.126" y="1.67" class="h">11.99</text><text x="69.138" y="1.67" class="h">EUR</text><text x="79.158" y="1.67" class="h">Link</text></symbol><symbol id="12"><text y="1.67" class="g">PWSH</text><text x="5.01" y="1.67" class="h">&gt;</text><text x="7.014" y="1.67" class="f">egs</text><text x="10.02" y="1.67" class="i">free</text><text x="15.03" y="1.67" class="i">get</text></symbol><symbol id="13"><text y="1.67" class="g">PWSH</text><text x="5.01" y="1.67" class="h">&gt;</text><text x="7.014" y="1.67" class="f">egsf</text><text x="11.022" y="1.67" class="i">ree</text><text x="15.03" y="1.67" class="i">get</text></symbol><symbol id="14"><text y="1.67" class="g">PWSH</text><text x="5.01" y="1.67" class="h">&gt;</text><text x="7.014" y="1.67" class="f">egsfr</text><text x="12.024" y="1.67" class="i">ee</text><text x="15.03" y="1.67" class="i">get</text></symbol><symbol id="15"><text y="1.67" class="g">PWSH</text><text x="5.01" y="1.67" class="h">&gt;</text><text x="7.014" y="1.67" class="f">egsfre</text><text x="13.026" y="1.67" class="i">e</text><text x="15.03" y="1.67" class="i">get</text></symbol><symbol id="16"><text y="1.67" class="g">PWSH</text><text x="5.01" y="1.67" class="h">&gt;</text><text x="7.014" y="1.67" class="f">egsfree</text></symbol><symbol id="17"><text y="1.67" class="h">A</text><text x="2.004" y="1.67" class="h">cli</text><text x="6.012" y="1.67" class="h">to</text><text x="9.018" y="1.67" class="h">fetch</text><text x="15.03" y="1.67" class="h">EpicGamesStore</text><text x="30.06" y="1.67" class="h">free</text><text x="35.07" y="1.67" class="h">games.</text></symbol><symbol id="18"><text y="1.67" class="h">Usage:</text><text x="7.014" y="1.67" class="h">egsfree</text><text x="15.03" y="1.67" class="h">&lt;command&gt;</text><text x="25.05" y="1.67" class="h">[arguments]</text></symbol><symbol id="19"><text y="1.67" class="h">Global</text><text x="7.014" y="1.67" class="h">options:</text></symbol><symbol id="20"><text y="1.67" class="h">-h,</text><text x="4.008" y="1.67" class="h">--help</text><text x="17.034" y="1.67" class="h">Print</text><text x="23.046" y="1.67" class="h">this</text><text x="28.056" y="1.67" class="h">usage</text><text x="34.068" y="1.67" class="h">information.</text></symbol><symbol id="21"><text x="4.008" y="1.67" class="h">--version</text><text x="17.034" y="1.67" class="h">Displays</text><text x="26.052" y="1.67" class="h">the</text><text x="30.06" y="1.67" class="h">current</text><text x="38.076" y="1.67" class="h">cli</text><text x="42.084" y="1.67" class="h">version.</text></symbol><symbol id="22"><text y="1.67" class="h">Available</text><text x="10.02" y="1.67" class="h">commands:</text></symbol><symbol id="23"><text x="2.004" y="1.67" class="h">config</text><text x="11.022" y="1.67" class="h">Display</text><text x="19.038" y="1.67" class="h">or</text><text x="22.044" y="1.67" class="h">edit</text><text x="27.054" y="1.67" class="h">the</text><text x="31.062" y="1.67" class="h">cli</text><text x="35.07" y="1.67" class="h">config.</text></symbol><symbol id="24"><text x="2.004" y="1.67" class="h">get</text><text x="11.022" y="1.67" class="h">Get</text><text x="15.03" y="1.67" class="h">the</text><text x="19.038" y="1.67" class="h">current</text><text x="27.054" y="1.67" class="h">EGS</text><text x="31.062" y="1.67" class="h">free</text><text x="36.072" y="1.67" class="h">games.</text></symbol><symbol id="25"><text x="2.004" y="1.67" class="h">update</text><text x="11.022" y="1.67" class="h">Updates</text><text x="19.038" y="1.67" class="h">the</text><text x="23.046" y="1.67" class="h">cli.</text></symbol><symbol id="26"><text y="1.67" class="h">Run</text><text x="4.008" y="1.67" class="h">&quot;egsfree</text><text x="13.026" y="1.67" class="h">help</text><text x="18.036" y="1.67" class="h">&lt;command&gt;&quot;</text><text x="29.058" y="1.67" class="h">for</text><text x="33.066" y="1.67" class="h">more</text><text x="38.076" y="1.67" class="h">information</text><text x="50.1" y="1.67" class="h">about</text><text x="56.112" y="1.67" class="h">a</text><text x="58.116" y="1.67" class="h">command.</text></symbol><symbol id="a"><path fill="transparent" d="M0 0h140v33H0z"/></symbol></defs><path class="a" d="M0 0h140v71.643H0z"/><g style="animation-duration:10.240594s;animation-iteration-count:infinite;animation-name:l;animation-timing-function:steps(1,end)"><svg width="4480"><svg><use xlink:href="#a"/></svg><svg x="140"><use xlink:href="#a"/><use xlink:href="#1" y="2.171"/><use xlink:href="#2" y="4.342"/></svg><svg x="280"><use xlink:href="#a"/><use xlink:href="#1" y="2.171"/><use xlink:href="#2" y="4.342"/></svg><svg x="420"><use xlink:href="#a"/><use xlink:href="#1" y="2.171"/><use xlink:href="#3" y="4.342"/></svg><svg x="560"><use xlink:href="#a"/><use xlink:href="#1" y="2.171"/><use xlink:href="#3" y="4.342"/></svg><svg x="700"><use xlink:href="#a"/><use xlink:href="#1" y="2.171"/><use xlink:href="#4" y="4.342"/></svg><svg x="840"><use xlink:href="#a"/><use xlink:href="#1" y="2.171"/><use xlink:href="#4" y="4.342"/></svg><svg x="980"><use xlink:href="#a"/><use xlink:href="#1" y="2.171"/><use xlink:href="#5" y="4.342"/></svg><svg x="1120"><use xlink:href="#a"/><use xlink:href="#1" y="2.171"/><use xlink:href="#5" y="4.342"/></svg><svg x="1260"><use xlink:href="#a"/><use xlink:href="#1" y="2.171"/><use xlink:href="#5" y="4.342"/><use xlink:href="#6" y="6.513"/></svg><svg x="1400"><use xlink:href="#a"/><use xlink:href="#1" y="2.171"/><use xlink:href="#5" y="4.342"/><use xlink:href="#6" y="6.513"/><use xlink:href="#7" y="8.684"/><use xlink:href="#8" y="13.026"/><use xlink:href="#9" y="15.197"/><use xlink:href="#10" y="17.368"/><use xlink:href="#11" y="19.539"/></svg><svg x="1540"><use xlink:href="#a"/><use xlink:href="#1" y="2.171"/><use xlink:href="#5" y="4.342"/><use xlink:href="#6" y="6.513"/><use xlink:href="#7" y="8.684"/><use xlink:href="#8" y="13.026"/><use xlink:href="#9" y="15.197"/><use xlink:href="#10" y="17.368"/><use xlink:href="#11" y="19.539"/><use xlink:href="#1" y="23.881"/><use xlink:href="#2" y="26.052"/></svg><svg x="1680"><use xlink:href="#a"/><use xlink:href="#1" y="2.171"/><use xlink:href="#5" y="4.342"/><use xlink:href="#6" y="6.513"/><use xlink:href="#7" y="8.684"/><use xlink:href="#8" y="13.026"/><use xlink:href="#9" y="15.197"/><use xlink:href="#10" y="17.368"/><use xlink:href="#11" y="19.539"/><use xlink:href="#1" y="23.881"/><use xlink:href="#2" y="26.052"/></svg><svg x="1820"><use xlink:href="#a"/><use xlink:href="#1" y="2.171"/><use xlink:href="#5" y="4.342"/><use xlink:href="#6" y="6.513"/><use xlink:href="#7" y="8.684"/><use xlink:href="#8" y="13.026"/><use xlink:href="#9" y="15.197"/><use xlink:href="#10" y="17.368"/><use xlink:href="#11" y="19.539"/><use xlink:href="#1" y="23.881"/><use xlink:href="#3" y="26.052"/></svg><svg x="1960"><use xlink:href="#a"/><use xlink:href="#1" y="2.171"/><use xlink:href="#5" y="4.342"/><use xlink:href="#6" y="6.513"/><use xlink:href="#7" y="8.684"/><use xlink:href="#8" y="13.026"/><use xlink:href="#9" y="15.197"/><use xlink:href="#10" y="17.368"/><use xlink:href="#11" y="19.539"/><use xlink:href="#1" y="23.881"/><use xlink:href="#3" y="26.052"/></svg><svg x="2100"><use xlink:href="#a"/><use xlink:href="#1" y="2.171"/><use xlink:href="#5" y="4.342"/><use xlink:href="#6" y="6.513"/><use xlink:href="#7" y="8.684"/><use xlink:href="#8" y="13.026"/><use xlink:href="#9" y="15.197"/><use xlink:href="#10" y="17.368"/><use xlink:href="#11" y="19.539"/><use xlink:href="#1" y="23.881"/><use xlink:href="#4" y="26.052"/></svg><svg x="2240"><use xlink:href="#a"/><use xlink:href="#1" y="2.171"/><use xlink:href="#5" y="4.342"/><use xlink:href="#6" y="6.513"/><use xlink:href="#7" y="8.684"/><use xlink:href="#8" y="13.026"/><use xlink:href="#9" y="15.197"/><use xlink:href="#10" y="17.368"/><use xlink:href="#11" y="19.539"/><use xlink:href="#1" y="23.881"/><use xlink:href="#4" y="26.052"/></svg><svg x="2380"><use xlink:href="#a"/><use xlink:href="#1" y="2.171"/><use xlink:href="#5" y="4.342"/><use xlink:href="#6" y="6.513"/><use xlink:href="#7" y="8.684"/><use xlink:href="#8" y="13.026"/><use xlink:href="#9" y="15.197"/><use xlink:href="#10" y="17.368"/><use xlink:href="#11" y="19.539"/><use xlink:href="#1" y="23.881"/><use xlink:href="#12" y="26.052"/></svg><svg x="2520"><use xlink:href="#a"/><use xlink:href="#1" y="2.171"/><use xlink:href="#5" y="4.342"/><use xlink:href="#6" y="6.513"/><use xlink:href="#7" y="8.684"/><use xlink:href="#8" y="13.026"/><use xlink:href="#9" y="15.197"/><use xlink:href="#10" y="17.368"/><use xlink:href="#11" y="19.539"/><use xlink:href="#1" y="23.881"/><use xlink:href="#12" y="26.052"/></svg><svg x="2660"><use xlink:href="#a"/><use xlink:href="#1" y="2.171"/><use xlink:href="#5" y="4.342"/><use xlink:href="#6" y="6.513"/><use xlink:href="#7" y="8.684"/><use xlink:href="#8" y="13.026"/><use xlink:href="#9" y="15.197"/><use xlink:href="#10" y="17.368"/><use xlink:href="#11" y="19.539"/><use xlink:href="#1" y="23.881"/><use xlink:href="#13" y="26.052"/></svg><svg x="2800"><use xlink:href="#a"/><use xlink:href="#1" y="2.171"/><use xlink:href="#5" y="4.342"/><use xlink:href="#6" y="6.513"/><use xlink:href="#7" y="8.684"/><use xlink:href="#8" y="13.026"/><use xlink:href="#9" y="15.197"/><use xlink:href="#10" y="17.368"/><use xlink:href="#11" y="19.539"/><use xlink:href="#1" y="23.881"/><use xlink:href="#13" y="26.052"/></svg><svg x="2940"><use xlink:href="#a"/><use xlink:href="#1" y="2.171"/><use xlink:href="#5" y="4.342"/><use xlink:href="#6" y="6.513"/><use xlink:href="#7" y="8.684"/><use xlink:href="#8" y="13.026"/><use xlink:href="#9" y="15.197"/><use xlink:href="#10" y="17.368"/><use xlink:href="#11" y="19.539"/><use xlink:href="#1" y="23.881"/><use xlink:href="#14" y="26.052"/></svg><svg x="3080"><use xlink:href="#a"/><use xlink:href="#1" y="2.171"/><use xlink:href="#5" y="4.342"/><use xlink:href="#6" y="6.513"/><use xlink:href="#7" y="8.684"/><use xlink:href="#8" y="13.026"/><use xlink:href="#9" y="15.197"/><use xlink:href="#10" y="17.368"/><use xlink:href="#11" y="19.539"/><use xlink:href="#1" y="23.881"/><use xlink:href="#14" y="26.052"/></svg><svg x="3220"><use xlink:href="#a"/><use xlink:href="#1" y="2.171"/><use xlink:href="#5" y="4.342"/><use xlink:href="#6" y="6.513"/><use xlink:href="#7" y="8.684"/><use xlink:href="#8" y="13.026"/><use xlink:href="#9" y="15.197"/><use xlink:href="#10" y="17.368"/><use xlink:href="#11" y="19.539"/><use xlink:href="#1" y="23.881"/><use xlink:href="#15" y="26.052"/></svg><svg x="3360"><use xlink:href="#a"/><use xlink:href="#1" y="2.171"/><use xlink:href="#5" y="4.342"/><use xlink:href="#6" y="6.513"/><use xlink:href="#7" y="8.684"/><use xlink:href="#8" y="13.026"/><use xlink:href="#9" y="15.197"/><use xlink:href="#10" y="17.368"/><use xlink:href="#11" y="19.539"/><use xlink:href="#1" y="23.881"/><use xlink:href="#15" y="26.052"/></svg><svg x="3500"><use xlink:href="#a"/><use xlink:href="#1" y="2.171"/><use xlink:href="#5" y="4.342"/><use xlink:href="#6" y="6.513"/><use xlink:href="#7" y="8.684"/><use xlink:href="#8" y="13.026"/><use xlink:href="#9" y="15.197"/><use xlink:href="#10" y="17.368"/><use xlink:href="#11" y="19.539"/><use xlink:href="#1" y="23.881"/><text y="27.722" class="g">PWSH</text><text x="5.01" y="27.722" class="h">&gt;</text><text x="7.014" y="27.722" class="f">egsfree</text><text x="15.03" y="27.722" class="i">get</text></svg><svg x="3640"><use xlink:href="#a"/><use xlink:href="#1" y="2.171"/><use xlink:href="#5" y="4.342"/><use xlink:href="#6" y="6.513"/><use xlink:href="#7" y="8.684"/><use xlink:href="#8" y="13.026"/><use xlink:href="#9" y="15.197"/><use xlink:href="#10" y="17.368"/><use xlink:href="#11" y="19.539"/><use xlink:href="#1" y="23.881"/><use xlink:href="#16" y="26.052"/></svg><svg x="3780"><use xlink:href="#a"/><use xlink:href="#1" y="2.171"/><use xlink:href="#5" y="4.342"/><use xlink:href="#6" y="6.513"/><use xlink:href="#7" y="8.684"/><use xlink:href="#8" y="13.026"/><use xlink:href="#9" y="15.197"/><use xlink:href="#10" y="17.368"/><use xlink:href="#11" y="19.539"/><use xlink:href="#1" y="23.881"/><use xlink:href="#16" y="26.052"/></svg><svg x="3920"><use xlink:href="#a"/><use xlink:href="#1" y="2.171"/><use xlink:href="#5" y="4.342"/><use xlink:href="#6" y="6.513"/><use xlink:href="#7" y="8.684"/><use xlink:href="#8" y="13.026"/><use xlink:href="#9" y="15.197"/><use xlink:href="#10" y="17.368"/><use xlink:href="#11" y="19.539"/><use xlink:href="#1" y="23.881"/><use xlink:href="#16" y="26.052"/><use xlink:href="#17" y="28.223"/><use xlink:href="#18" y="32.565"/><use xlink:href="#19" y="36.907"/><use xlink:href="#20" y="39.078"/><use xlink:href="#21" y="41.249"/><use xlink:href="#22" y="45.591"/><use xlink:href="#23" y="47.762"/><use xlink:href="#24" y="49.933"/><use xlink:href="#25" y="52.104"/><use xlink:href="#26" y="56.446"/></svg><svg x="4060"><use xlink:href="#a"/><use xlink:href="#1" y="2.171"/><use xlink:href="#5" y="4.342"/><use xlink:href="#6" y="6.513"/><use xlink:href="#7" y="8.684"/><use xlink:href="#8" y="13.026"/><use xlink:href="#9" y="15.197"/><use xlink:href="#10" y="17.368"/><use xlink:href="#11" y="19.539"/><use xlink:href="#1" y="23.881"/><use xlink:href="#16" y="26.052"/><use xlink:href="#17" y="28.223"/><use xlink:href="#18" y="32.565"/><use xlink:href="#19" y="36.907"/><use xlink:href="#20" y="39.078"/><use xlink:href="#21" y="41.249"/><use xlink:href="#22" y="45.591"/><use xlink:href="#23" y="47.762"/><use xlink:href="#24" y="49.933"/><use xlink:href="#25" y="52.104"/><use xlink:href="#26" y="56.446"/><use xlink:href="#1" y="60.788"/><use xlink:href="#2" y="62.959"/></svg><svg x="4200"><use xlink:href="#a"/><use xlink:href="#1" y="2.171"/><use xlink:href="#5" y="4.342"/><use xlink:href="#6" y="6.513"/><use xlink:href="#7" y="8.684"/><use xlink:href="#8" y="13.026"/><use xlink:href="#9" y="15.197"/><use xlink:href="#10" y="17.368"/><use xlink:href="#11" y="19.539"/><use xlink:href="#1" y="23.881"/><use xlink:href="#16" y="26.052"/><use xlink:href="#17" y="28.223"/><use xlink:href="#18" y="32.565"/><use xlink:href="#19" y="36.907"/><use xlink:href="#20" y="39.078"/><use xlink:href="#21" y="41.249"/><use xlink:href="#22" y="45.591"/><use xlink:href="#23" y="47.762"/><use xlink:href="#24" y="49.933"/><use xlink:href="#25" y="52.104"/><use xlink:href="#26" y="56.446"/><use xlink:href="#1" y="60.788"/><use xlink:href="#2" y="62.959"/></svg><svg x="4340"><use xlink:href="#a"/><use xlink:href="#1" y="2.171"/><use xlink:href="#5" y="4.342"/><use xlink:href="#6" y="6.513"/><use xlink:href="#7" y="8.684"/><use xlink:href="#8" y="13.026"/><use xlink:href="#9" y="15.197"/><use xlink:href="#10" y="17.368"/><use xlink:href="#11" y="19.539"/><use xlink:href="#1" y="23.881"/><use xlink:href="#16" y="26.052"/><use xlink:href="#17" y="28.223"/><use xlink:href="#18" y="32.565"/><use xlink:href="#19" y="36.907"/><use xlink:href="#20" y="39.078"/><use xlink:href="#21" y="41.249"/><use xlink:href="#22" y="45.591"/><use xlink:href="#23" y="47.762"/><use xlink:href="#24" y="49.933"/><use xlink:href="#25" y="52.104"/><use xlink:href="#26" y="56.446"/><use xlink:href="#1" y="60.788"/><use xlink:href="#2" y="62.959"/><use xlink:href="#1" y="67.301"/><use xlink:href="#2" y="69.472"/></svg></svg></g></g></svg></svg>
